<svg height="512pt" viewBox="0 0 512 512" width="512pt" xmlns="http://www.w3.org/2000/svg"><path d="m421 286c0 16.5-13.5 30-30 30l-135 30-135-30c-16.5 0-30-13.5-30-30s13.5-30 30-30l135-29.699219.902344-.300781 134.097656 30c16.5 0 30 13.5 30 30zm0 0" fill="#9cdd05"/><path d="m421 286c0 16.5-13.5 30-30 30l-135 30v-119.699219l.902344-.300781 134.097656 30c16.5 0 30 13.5 30 30zm0 0" fill="#6b0"/><path d="m421 226c0 16.5-13.5 30-30 30h-270c-16.5 0-30-13.5-30-30s13.5-30 30-30l135-29.699219.902344-.300781 134.097656 30c16.5 0 30 13.5 30 30zm0 0" fill="#ff641a"/><path d="m421 226c0 16.5-13.5 30-30 30h-135v-89.699219l.902344-.300781 134.097656 30c16.5 0 30 13.5 30 30zm0 0" fill="#f03800"/><path d="m451 151c0 24.902344-20.097656 45-45 45h-300c-24.902344 0-45-20.097656-45-45 0-52.800781 39.300781-96.300781 90-103.5l15 28.5 15-30h60l15 30 15-30h60l15 30 15-28.5c50.699219 7.199219 90 50.699219 90 103.5zm0 0" fill="#ffda2d"/><path d="m406 196h-150v-120l15-30h60l15 30 15-28.5c50.699219 7.199219 90 50.699219 90 103.5 0 24.902344-20.097656 45-45 45zm0 0" fill="#fdbf00"/><path d="m451 361c0 52.800781-39.300781 96.300781-90 103.5l-15-28.5-15 30h-60l-15-30-15 30h-60l-15-30-15 28.5c-50.699219-7.199219-90-50.699219-90-103.5 0-24.902344 20.097656-45 45-45h300c24.902344 0 45 20.097656 45 45zm0 0" fill="#ffda2d"/><path d="m451 361c0 52.800781-39.300781 96.300781-90 103.5l-15-28.5-15 30h-60l-15-30v-120h150c24.902344 0 45 20.097656 45 45zm0 0" fill="#fdbf00"/><path d="m15 91c-8.289062 0-15-6.710938-15-15v-61c0-8.289062 6.710938-15 15-15h61c8.289062 0 15 6.710938 15 15s-6.710938 15-15 15h-46v46c0 8.289062-6.710938 15-15 15zm0 0" fill="#ff641a"/><path d="m497 91c-8.289062 0-15-6.710938-15-15v-46h-46c-8.289062 0-15-6.710938-15-15s6.710938-15 15-15h61c8.289062 0 15 6.710938 15 15v61c0 8.289062-6.710938 15-15 15zm0 0" fill="#f03800"/><path d="m76 512h-61c-8.289062 0-15-6.710938-15-15v-61c0-8.289062 6.710938-15 15-15s15 6.710938 15 15v46h46c8.289062 0 15 6.710938 15 15s-6.710938 15-15 15zm0 0" fill="#ff641a"/><path d="m497 512h-61c-8.289062 0-15-6.710938-15-15s6.710938-15 15-15h46v-46c0-8.289062 6.710938-15 15-15s15 6.710938 15 15v61c0 8.289062-6.710938 15-15 15zm0 0" fill="#f03800"/><path d="m166 136c8.289062 0 15-6.710938 15-15v-75h-15c-5.136719 0-10.058594.800781-15 1.511719v73.488281c0 8.289062 6.710938 15 15 15zm0 0" fill="#fdbf00"/><path d="m271 46v75c0 8.402344-6.597656 15-15 15s-15-6.597656-15-15v-75zm0 0" fill="#fdbf00"/><path d="m346 136c8.289062 0 15-6.710938 15-15v-73.488281c-4.941406-.710938-9.863281-1.511719-15-1.511719h-15v75c0 8.289062 6.710938 15 15 15zm0 0" fill="#ff9100"/><path d="m166 376c8.289062 0 15 6.710938 15 15v75h-15c-5.136719 0-10.058594-.800781-15-1.511719v-73.488281c0-8.289062 6.710938-15 15-15zm0 0" fill="#fdbf00"/><path d="m271 391v75h-30v-75c0-8.402344 6.597656-15 15-15s15 6.597656 15 15zm0 0" fill="#fdbf00"/><g fill="#ff9100"><path d="m346 376c8.289062 0 15 6.710938 15 15v73.488281c-4.941406.710938-9.863281 1.511719-15 1.511719h-15v-75c0-8.289062 6.710938-15 15-15zm0 0"/><path d="m256 136v-90h15v75c0 8.402344-6.597656 15-15 15zm0 0"/><path d="m271 391v75h-15v-90c8.402344 0 15 6.597656 15 15zm0 0"/></g></svg>