<svg height="512pt" viewBox="0 0 512 512" width="512pt" xmlns="http://www.w3.org/2000/svg"><path d="m15 91c8.289062 0 15-6.710938 15-15v-46h46c8.289062 0 15-6.710938 15-15s-6.710938-15-15-15h-61c-8.289062 0-15 6.710938-15 15v61c0 8.289062 6.710938 15 15 15zm0 0"/><path d="m497 0h-61c-8.289062 0-15 6.710938-15 15s6.710938 15 15 15h46v46c0 8.289062 6.710938 15 15 15s15-6.710938 15-15v-61c0-8.289062-6.710938-15-15-15zm0 0"/><path d="m15 512h61c8.289062 0 15-6.710938 15-15s-6.710938-15-15-15h-46v-46c0-8.289062-6.710938-15-15-15s-15 6.710938-15 15v61c0 8.289062 6.710938 15 15 15zm0 0"/><path d="m497 421c-8.289062 0-15 6.710938-15 15v46h-46c-8.289062 0-15 6.710938-15 15s6.710938 15 15 15h61c8.289062 0 15-6.710938 15-15v-61c0-8.289062-6.710938-15-15-15zm0 0"/><path d="m61 136c0 16.570312 13.429688 30 30 30h330c16.570312 0 30-13.429688 30-30 0-49.707031-40.292969-90-90-90v45c0 8.289062-6.710938 15-15 15s-15-6.710938-15-15v-45h-60v45c0 8.289062-6.710938 15-15 15s-15-6.710938-15-15v-45h-60v45c0 8.289062-6.710938 15-15 15s-15-6.710938-15-15v-45c-49.707031 0-90 40.292969-90 90zm0 0"/><path d="m451 376c0-16.570312-13.429688-30-30-30h-330c-16.570312 0-30 13.429688-30 30 0 49.707031 40.292969 90 90 90v-45c0-8.289062 6.710938-15 15-15s15 6.710938 15 15v45h60v-45c0-8.289062 6.710938-15 15-15s15 6.710938 15 15v45h60v-45c0-8.289062 6.710938-15 15-15s15 6.710938 15 15v45c49.707031 0 90-40.292969 90-90zm0 0"/><path d="m113.5 241h285c12.425781 0 22.5-10.074219 22.5-22.5s-10.074219-22.5-22.5-22.5h-285c-12.425781 0-22.5 10.074219-22.5 22.5s10.074219 22.5 22.5 22.5zm0 0"/><path d="m113.5 316h285c12.425781 0 22.5-10.074219 22.5-22.5s-10.074219-22.5-22.5-22.5h-285c-12.425781 0-22.5 10.074219-22.5 22.5s10.074219 22.5 22.5 22.5zm0 0"/></svg>